<?xml version="1.0" standalone="no"?>
<!DOCTYPE svg PUBLIC "-//W3C//DTD SVG 20010904//EN"
 "http://www.w3.org/TR/2001/REC-SVG-20010904/DTD/svg10.dtd">
<svg version="1.0" xmlns="http://www.w3.org/2000/svg"
 width="150.000000pt" height="150.000000pt" viewBox="0 0 150.000000 150.000000"
 preserveAspectRatio="xMidYMid meet">
<metadata>
Created by potrace 1.16, written by Peter Selinger 2001-2019
</metadata>
<g transform="translate(0.000000,150.000000) scale(0.100000,-0.100000)"
fill="#000000" stroke="none">
<path d="M1 1033 c0 -438 1 -466 17 -444 176 253 372 437 517 485 79 26 201
46 273 46 l67 -1 23 -44 c26 -52 28 -78 7 -95 -17 -14 -68 -5 -86 16 -18 22
-98 18 -149 -8 -24 -13 -46 -28 -47 -34 -2 -6 16 -32 40 -58 25 -26 47 -60 51
-77 3 -17 13 -46 23 -66 15 -33 15 -37 -1 -67 -11 -20 -42 -47 -81 -70 -35
-20 -70 -47 -78 -60 -30 -44 -49 -137 -50 -235 -1 -86 3 -108 37 -209 l38
-112 449 0 449 0 0 750 0 750 -750 0 -750 0 1 -467z m1102 -192 c23 -28 55
-126 45 -137 -3 -2 -25 4 -49 15 -36 16 -91 27 -143 30 -15 1 4 55 37 103 30
45 32 46 58 33 15 -8 38 -28 52 -44z"/>
<path d="M23 223 c-20 -4 -23 -11 -23 -49 0 -28 4 -43 10 -39 5 3 10 1 10 -4
0 -6 -4 -11 -10 -11 -5 0 -9 -26 -8 -60 l2 -60 67 0 68 0 -11 31 c-6 17 -8 56
-5 86 7 63 -6 99 -37 107 -22 6 -27 6 -63 -1z"/>
</g>
</svg>
