<?xml version="1.0" encoding="utf-8"?>
<!-- Generator: Adobe Illustrator 25.2.0, SVG Export Plug-In . SVG Version: 6.00 Build 0)  -->
<svg version="1.1" id="Layer_1" xmlns="http://www.w3.org/2000/svg" xmlns:xlink="http://www.w3.org/1999/xlink" x="0px" y="0px"
	 viewBox="0 0 417.2 144" style="enable-background:new 0 0 417.2 144;" xml:space="preserve">
<style type="text/css">
	.st0{fill:#373A36;}
	.st1{fill:#C3A86B;}
</style>
<g>
	<g>
		<path class="st0" d="M376.4,89.4H40.8c-22.4,0-40.8-18.4-40.8-40.8v-5.7c0-22.4,18.4-40.8,40.8-40.8h335.7
			c22.4,0,40.8,18.4,40.8,40.8v5.7C417.2,71.1,398.9,89.4,376.4,89.4z"/>
	</g>
	<g>
		<path class="st1" d="M76.3,24.8c-1.2-0.6-2.6-1-4.2-1c-8,0-14,7.8-14,19.6c0,10.3,4.6,14.7,11.6,14.7c3.2,0,8.6-0.9,12.7-2.4
			c0,1.8-1,4.9-2.1,6.6c-3.7,1.9-8.8,3.4-13.6,3.4c-11.8,0-18.9-8.5-18.9-21.2c0-16.2,11.7-27,25.5-27c4.7,0,9.1,1.2,12.5,3
			c-0.4,3.9-1.4,9.2-2.3,12.5c-2.4,0-5.8-0.8-7.6-1.9L76.3,24.8z"/>
		<path class="st1" d="M104.9,60.3c-1.7,3-4.6,5.2-8.8,5.2c-5.1,0-9-3.6-9-12.2c0-5.1,1.6-10.4,4.8-14.5c3.1-3.9,7.8-6.6,14-6.6
			c4.2,0,8.2,1.6,10.8,3.3L114,57.3c0,0.3,0.2,1,0.3,1.1l4.5-0.5c0,1.5-0.9,4.4-1.7,5.8c-2.2,0.9-7.3,1.8-9.9,1.8
			c-0.8-1.5-1.5-3.7-1.7-5.2H104.9z M107.4,38.3c-0.6-0.2-1.6-0.3-2.2-0.3c-2.4,0-4.8,1.8-6.2,3.9c-1.8,2.7-2.6,7.4-2.6,10.7
			c0,4.5,1.2,6.1,3.2,6.1c1.9,0,3.7-1,5.3-3.2L107.4,38.3z"/>
		<path class="st1" d="M143,42.8c0-2.4-1-4-3-4s-4.2,2.4-5.3,4.4l-2.3,21c-1.4,0.3-3.5,0.5-5.5,0.5c-1.5,0-3-0.1-4.1-0.5l3.7-24.5
			l-4.5,0.4c0-1.2,0.8-4.8,1.6-5.6c1.8-1.2,4.3-1.8,6.9-1.8c1.2,0,2.4,0.2,3.6,0.6l-0.6,5.5h1c1.5-3.3,4.3-6.5,9.5-6.5
			c3.6,0,6.8,1.7,7.7,6.2h0.6c1.4-3.2,4.2-6.2,9.2-6.2c4.1,0,8.2,2.1,8.2,8.9c0,3.7-1.3,11.3-2,16.2c0,0.3,0.2,1,0.3,1.1l4.7-0.5
			c0,1.5-0.9,4.4-1.7,5.8c-2.2,0.9-7.3,1.8-9.9,1.8c-1.2-1.2-3-4.4-3-5.9c0.8-4.4,2.4-13.5,2.4-16.8c0-2.4-0.8-4-2.8-4
			c-2.1,0-4.3,2.3-5.5,4.3l-2.4,21.1c-1.4,0.3-3.3,0.5-5.3,0.5c-1.5,0-3-0.1-4.1-0.5C141.7,55.3,143,45.6,143,42.8z"/>
		<path class="st1" d="M181.2,39.6l-4.5,0.4c0-1.2,0.8-4.8,1.6-5.6c1.8-1.2,4.3-1.8,6.9-1.8c1.2,0,2.4,0.2,3.6,0.6l-0.6,5.5h1
			c1.9-4,5.1-6.5,9.8-6.5c5.1,0,9.3,3.7,9.3,12.4c0,5.4-1.6,11.7-4.9,15.6c-2.6,3.2-7,5.3-12,5.3c-1.7,0-3.3-0.3-4.6-0.8L185.5,79
			c-1.4,0.3-3.5,0.5-5.5,0.5c-1.5,0-3-0.1-4.1-0.5L181.2,39.6z M187.5,59c0.5,0.2,1.5,0.4,2.4,0.4c2.8,0,4.7-0.8,6.1-2.5
			c2.3-2.8,3-7.7,3-11.3c0-5.1-1.4-6.7-3.9-6.7c-2.3,0-4.1,1.5-5.9,4.6L187.5,59z"/>
		<path class="st1" d="M212.1,52c0-4.1,0.8-8,2.8-11.5c2.8-4.9,7.6-8.3,14.5-8.3c8,0,12.5,4.5,12.5,13.5c0,4.4-1,8.8-3.3,12.4
			c-2.8,4.4-7.5,7.4-14.1,7.4C216.4,65.5,212.1,61,212.1,52z M230.8,55.4c1.2-2.6,1.5-6.2,1.5-9.5c0-5.3-1.1-7.7-3.9-7.7
			c-2.3,0-4.1,1.7-5.2,4.1c-1.3,2.8-1.7,6.6-1.7,9.6c0,5.3,1.4,7.4,4.1,7.4C228.1,59.4,229.8,57.8,230.8,55.4z"/>
		<path class="st1" d="M263.2,60.3c-1.7,3-4.6,5.2-8.8,5.2c-5.1,0-9-3.6-9-12.2c0-5.1,1.6-10.4,4.8-14.5c3.1-3.9,7.8-6.6,14-6.6
			c4.2,0,8.2,1.6,10.8,3.3l-2.6,21.7c0,0.3,0.2,1,0.3,1.1l4.5-0.5c0,1.5-0.9,4.4-1.7,5.8c-2.2,0.9-7.3,1.8-9.9,1.8
			c-0.8-1.5-1.5-3.7-1.7-5.2H263.2z M265.7,38.3c-0.6-0.2-1.6-0.3-2.2-0.3c-2.4,0-4.8,1.8-6.2,3.9c-1.8,2.7-2.6,7.4-2.6,10.7
			c0,4.5,1.2,6.1,3.2,6.1c1.9,0,3.7-1,5.3-3.2L265.7,38.3z"/>
		<path class="st1" d="M279.5,39.9c0-1.2,0.7-4.8,1.4-5.7c1.8-0.9,4.3-1.5,7-1.5c1.3,0,2.5,0.2,3.7,0.6l2.7,16.7
			c0.3,2.1,0.8,5.7,0.8,7.9h0.8c2.5-5.5,5.2-12.2,7-17.6c0-0.3-0.1-0.8-0.3-1.1l-4.5,0.4c0.1-1.7,1-4.7,2-5.7c1.9-0.8,7-1.5,8.8-1.5
			c1.1,0.8,3.1,4.7,3.1,6.3c-3.5,8.7-8.9,18.1-14.7,27.5l-8.7-1.4l-5.1-25.2L279.5,39.9z"/>
		<path class="st1" d="M322.8,52.9c0,3.9,1.5,5.1,4.3,5.1c3.6,0,8.4-1.2,11.4-2.8c0,1.8-0.9,4.8-1.9,6.4c-2.4,1.9-6.5,3.8-11.5,3.8
			c-7.9,0-11.6-4.2-11.6-12.2c0-5.3,1.6-11.4,4.8-15.4c2.8-3.5,6.9-5.7,12.2-5.7c6.4,0,9.9,3.1,9.9,8.3c0,5.1-3.5,10.6-17.8,11.5
			V52.9z M331.7,40.9c0-1.7-0.6-2.9-2.3-2.9c-1.8,0-3.5,1.4-4.5,3.2c-0.8,1.4-1.4,3.6-1.5,5.1C330.8,45.8,331.7,43.1,331.7,40.9z"/>
		<path class="st1" d="M360.4,38.3c-0.3-0.2-1.3-0.5-2-0.5c-1.5,0-3,1.1-3,2.9c0,4.4,12.6,5.1,12.6,14.1c0,7.7-7,10.8-14.1,10.8
			c-6.5,0-10.7-2.1-10.9-7.1c1.4-2.1,5.5-3.4,8.7-3.4c0.2,3.1,1.8,4.8,3.7,4.8c1.7,0,3.5-1.3,3.5-3.3c0-4.5-12.2-4.4-12.2-14.5
			c0-5.6,5-9.7,12.7-9.7c2.8,0,6.4,0.8,9.5,2.2c-0.1,2.3-0.8,6.1-1.7,8.4c-2.4,0-5.6-0.8-7-1.8L360.4,38.3z"/>
	</g>
	<g>
		<path class="st0" d="M21,121.6c1.1,0,2.1,0.2,2.9,0.6c0.8,0.4,1.4,1.1,1.7,2.1c0.2,0.6,0.4,1.2,0.4,2.1c0,0.8,0.1,1.7,0.1,2.7
			c0,1.5,0,2.7,0,3.7c0,1-0.2,1.9-0.4,2.6c-0.2,0.6-0.5,1-0.8,1.4c-0.3,0.4-0.7,0.7-1.1,0.9c-0.4,0.2-0.9,0.4-1.4,0.5
			c-0.5,0.1-1,0.1-1.6,0.1h-5.2v-16.7H21z M22.6,128.5c0-0.5,0-0.9-0.1-1.4c0-0.4-0.1-0.8-0.3-1.2c-0.2-0.3-0.4-0.6-0.7-0.8
			c-0.3-0.2-0.7-0.3-1.2-0.3h-1.4v10.2h1.5c0.9,0,1.5-0.2,1.8-0.7c0.3-0.4,0.4-1.1,0.4-1.8V128.5z"/>
		<path class="st0" d="M43.7,133c0,0.8-0.1,1.6-0.4,2.2c-0.3,0.7-0.6,1.2-1.1,1.7c-0.5,0.5-1,0.8-1.7,1.1c-0.6,0.2-1.4,0.4-2.1,0.4
			c-1,0-1.8-0.2-2.5-0.5c-0.7-0.3-1.2-0.7-1.7-1.2c-0.4-0.5-0.7-1.1-0.9-1.8s-0.3-1.4-0.3-2.2v-5.9c0-0.6,0.1-1.2,0.3-1.9
			c0.2-0.6,0.5-1.2,0.9-1.7c0.4-0.5,1-0.9,1.7-1.3c0.7-0.3,1.5-0.5,2.5-0.5c0.9,0,1.7,0.2,2.4,0.5c0.7,0.3,1.2,0.7,1.7,1.2
			c0.4,0.5,0.8,1.1,1,1.7c0.2,0.6,0.3,1.3,0.3,1.9V133z M40.3,126.7c0-0.2,0-0.3-0.1-0.5c-0.1-0.2-0.2-0.4-0.3-0.6
			c-0.1-0.2-0.3-0.4-0.6-0.5c-0.2-0.1-0.5-0.2-0.9-0.2c-0.4,0-0.6,0.1-0.9,0.2c-0.2,0.1-0.4,0.3-0.6,0.5c-0.2,0.2-0.3,0.4-0.3,0.6
			c-0.1,0.2-0.1,0.4-0.1,0.6v6.2c0,0.6,0.1,1.2,0.4,1.6c0.3,0.4,0.8,0.6,1.5,0.6c0.5,0,0.9-0.2,1.3-0.5c0.4-0.3,0.5-0.8,0.5-1.3
			V126.7z"/>
		<path class="st0" d="M72,134.3c-0.2,1.3-0.8,2.3-1.8,3c-0.9,0.7-2.1,1.1-3.4,1.1c-1,0-1.8-0.2-2.5-0.5c-0.7-0.3-1.2-0.7-1.7-1.2
			c-0.4-0.5-0.7-1.1-0.9-1.8s-0.3-1.4-0.3-2.2v-5.9c0-0.6,0.1-1.2,0.3-1.9c0.2-0.6,0.5-1.2,0.9-1.7c0.4-0.5,1-0.9,1.7-1.3
			c0.7-0.3,1.5-0.5,2.5-0.5c0.8,0,1.5,0.1,2.1,0.3c0.6,0.2,1.1,0.5,1.6,0.9c0.4,0.4,0.8,0.8,1.1,1.3c0.3,0.5,0.5,1,0.6,1.6l-3.3,1
			c0-0.2-0.1-0.3-0.2-0.6c-0.1-0.2-0.2-0.4-0.3-0.6c-0.2-0.2-0.4-0.3-0.6-0.5c-0.2-0.1-0.5-0.2-0.9-0.2c-0.4,0-0.6,0.1-0.9,0.2
			c-0.2,0.1-0.4,0.3-0.6,0.5c-0.1,0.2-0.2,0.4-0.3,0.6c-0.1,0.2-0.1,0.4-0.1,0.6v6.2c0,0.6,0.1,1.2,0.4,1.6s0.8,0.6,1.4,0.6
			c0.5,0,0.9-0.2,1.3-0.5c0.4-0.3,0.6-0.7,0.6-1.3L72,134.3z"/>
		<path class="st0" d="M86,134.9h-3.9c-0.1,0.6-0.3,1.1-0.4,1.7c-0.2,0.6-0.3,1.1-0.5,1.7h-3.7l4.8-16.7h3.4l4.8,16.7h-3.7L86,134.9
			z M83.3,129.4l-0.5,2.4h2.4l-0.5-2.4l-0.7-3.3H84L83.3,129.4z"/>
		<path class="st0" d="M107.1,138.3v-7.9l-0.1,0l-1.1,3l-0.9,2.2h-2.5l-0.9-2.3l-1.1-2.9l-0.1,0v7.9h-3.4v-16.7h3.2l1.9,4.6l1.7,4.2
			h0.1l1.6-4.2l1.9-4.6h3.3v16.7H107.1z"/>
		<path class="st0" d="M128.7,126.9c0,0.8-0.1,1.5-0.4,2.2c-0.2,0.7-0.6,1.2-1,1.7c-0.4,0.5-1,0.8-1.6,1.1c-0.6,0.3-1.4,0.4-2.2,0.4
			h-2v6.1h-3.5v-16.7h5.3c0.8,0,1.5,0.1,2.2,0.3c0.7,0.2,1.2,0.5,1.7,1c0.5,0.4,0.8,1,1.1,1.6C128.6,125.2,128.7,126,128.7,126.9z
			 M125.3,126.8c0-0.7-0.2-1.2-0.5-1.5c-0.4-0.3-0.8-0.5-1.4-0.5h-1.8v4.1h1.8c0.5,0,1-0.2,1.4-0.5
			C125.1,128.2,125.3,127.6,125.3,126.8z"/>
		<path class="st0" d="M145.5,133c0,0.8-0.1,1.6-0.4,2.2c-0.3,0.7-0.6,1.2-1.1,1.7s-1,0.8-1.7,1.1c-0.6,0.2-1.4,0.4-2.1,0.4
			c-1,0-1.8-0.2-2.5-0.5c-0.7-0.3-1.2-0.7-1.7-1.2c-0.4-0.5-0.7-1.1-0.9-1.8s-0.3-1.4-0.3-2.2v-5.9c0-0.6,0.1-1.2,0.3-1.9
			c0.2-0.6,0.5-1.2,0.9-1.7c0.4-0.5,1-0.9,1.7-1.3c0.7-0.3,1.5-0.5,2.5-0.5c0.9,0,1.7,0.2,2.4,0.5c0.7,0.3,1.2,0.7,1.7,1.2
			c0.4,0.5,0.8,1.1,1,1.7c0.2,0.6,0.3,1.3,0.3,1.9V133z M142,126.7c0-0.2,0-0.3-0.1-0.5s-0.2-0.4-0.3-0.6c-0.1-0.2-0.3-0.4-0.6-0.5
			c-0.2-0.1-0.5-0.2-0.9-0.2c-0.4,0-0.6,0.1-0.9,0.2c-0.2,0.1-0.4,0.3-0.6,0.5c-0.2,0.2-0.3,0.4-0.3,0.6c-0.1,0.2-0.1,0.4-0.1,0.6
			v6.2c0,0.6,0.1,1.2,0.4,1.6c0.3,0.4,0.8,0.6,1.5,0.6c0.5,0,0.9-0.2,1.3-0.5c0.4-0.3,0.5-0.8,0.5-1.3V126.7z"/>
		<path class="st0" d="M152.7,141.9l0.9-3.6h-0.8v-3.8h3.7v3.7l-1.9,3.7H152.7z"/>
		<path class="st0" d="M184.9,134.3c-0.2,1.3-0.8,2.3-1.8,3c-0.9,0.7-2.1,1.1-3.4,1.1c-1,0-1.8-0.2-2.5-0.5
			c-0.7-0.3-1.2-0.7-1.7-1.2c-0.4-0.5-0.7-1.1-0.9-1.8s-0.3-1.4-0.3-2.2v-5.9c0-0.6,0.1-1.2,0.3-1.9c0.2-0.6,0.5-1.2,0.9-1.7
			c0.4-0.5,1-0.9,1.7-1.3c0.7-0.3,1.5-0.5,2.5-0.5c0.8,0,1.5,0.1,2.1,0.3c0.6,0.2,1.1,0.5,1.6,0.9c0.4,0.4,0.8,0.8,1.1,1.3
			c0.3,0.5,0.5,1,0.6,1.6l-3.3,1c0-0.2-0.1-0.3-0.2-0.6c-0.1-0.2-0.2-0.4-0.3-0.6c-0.2-0.2-0.4-0.3-0.6-0.5
			c-0.2-0.1-0.5-0.2-0.9-0.2c-0.4,0-0.6,0.1-0.9,0.2c-0.2,0.1-0.4,0.3-0.6,0.5c-0.1,0.2-0.2,0.4-0.3,0.6c-0.1,0.2-0.1,0.4-0.1,0.6
			v6.2c0,0.6,0.1,1.2,0.4,1.6c0.3,0.4,0.8,0.6,1.4,0.6c0.5,0,0.9-0.2,1.3-0.5c0.4-0.3,0.6-0.7,0.6-1.3L184.9,134.3z"/>
		<path class="st0" d="M202.1,133c0,0.8-0.1,1.6-0.4,2.2c-0.3,0.7-0.6,1.2-1.1,1.7s-1,0.8-1.7,1.1c-0.6,0.2-1.4,0.4-2.1,0.4
			c-1,0-1.8-0.2-2.5-0.5c-0.7-0.3-1.2-0.7-1.7-1.2c-0.4-0.5-0.7-1.1-0.9-1.8s-0.3-1.4-0.3-2.2v-5.9c0-0.6,0.1-1.2,0.3-1.9
			c0.2-0.6,0.5-1.2,0.9-1.7c0.4-0.5,1-0.9,1.7-1.3c0.7-0.3,1.5-0.5,2.5-0.5c0.9,0,1.7,0.2,2.4,0.5c0.7,0.3,1.2,0.7,1.7,1.2
			c0.4,0.5,0.8,1.1,1,1.7c0.2,0.6,0.3,1.3,0.3,1.9V133z M198.6,126.7c0-0.2,0-0.3-0.1-0.5s-0.2-0.4-0.3-0.6
			c-0.1-0.2-0.3-0.4-0.6-0.5c-0.2-0.1-0.5-0.2-0.9-0.2c-0.4,0-0.6,0.1-0.9,0.2c-0.2,0.1-0.4,0.3-0.6,0.5c-0.2,0.2-0.3,0.4-0.3,0.6
			c-0.1,0.2-0.1,0.4-0.1,0.6v6.2c0,0.6,0.1,1.2,0.4,1.6c0.3,0.4,0.8,0.6,1.5,0.6c0.5,0,0.9-0.2,1.3-0.5c0.4-0.3,0.5-0.8,0.5-1.3
			V126.7z"/>
		<path class="st0" d="M219.6,138.3v-7.9l-0.1,0l-1.1,3l-0.9,2.2H215l-0.9-2.3l-1.1-2.9l-0.1,0v7.9h-3.4v-16.7h3.2l1.9,4.6l1.7,4.2
			h0.1l1.6-4.2l1.9-4.6h3.3v16.7H219.6z"/>
		<path class="st0" d="M240.8,133c0,0.8-0.1,1.6-0.4,2.2c-0.3,0.7-0.6,1.2-1.1,1.7s-1,0.8-1.7,1.1c-0.6,0.2-1.4,0.4-2.1,0.4
			c-1,0-1.8-0.2-2.5-0.5c-0.7-0.3-1.2-0.7-1.7-1.2c-0.4-0.5-0.7-1.1-0.9-1.8s-0.3-1.4-0.3-2.2v-5.9c0-0.6,0.1-1.2,0.3-1.9
			c0.2-0.6,0.5-1.2,0.9-1.7c0.4-0.5,1-0.9,1.7-1.3c0.7-0.3,1.5-0.5,2.5-0.5c0.9,0,1.7,0.2,2.4,0.5c0.7,0.3,1.2,0.7,1.7,1.2
			c0.4,0.5,0.8,1.1,1,1.7c0.2,0.6,0.3,1.3,0.3,1.9V133z M237.3,126.7c0-0.2,0-0.3-0.1-0.5c-0.1-0.2-0.2-0.4-0.3-0.6
			c-0.1-0.2-0.3-0.4-0.6-0.5c-0.2-0.1-0.5-0.2-0.9-0.2c-0.4,0-0.6,0.1-0.9,0.2c-0.2,0.1-0.4,0.3-0.6,0.5c-0.2,0.2-0.3,0.4-0.3,0.6
			c-0.1,0.2-0.1,0.4-0.1,0.6v6.2c0,0.6,0.1,1.2,0.4,1.6c0.3,0.4,0.8,0.6,1.5,0.6c0.5,0,0.9-0.2,1.3-0.5c0.4-0.3,0.5-0.8,0.5-1.3
			V126.7z"/>
		<path class="st0" d="M258.9,138.3v-16.7h9.7v3.2h-6.2v3.4h5.4v3.2h-5.4v3.5h6.2v3.3H258.9z M261.5,119.3l4.1-3.1l2,2.4l-4.9,2.3
			L261.5,119.3z"/>
		<path class="st0" d="M294.5,138.3l-3.1-5.6l-1.8-3.5l-0.1,0v9h-3.5v-16.7h3.1l2.7,5l2.2,4l0.1,0v-9h3.4v16.7H294.5z"/>
		<path class="st0" d="M312.3,134.9h-3.9c-0.1,0.6-0.3,1.1-0.4,1.7c-0.2,0.6-0.3,1.1-0.5,1.7h-3.7l4.8-16.7h3.4l4.8,16.7h-3.7
			L312.3,134.9z M309.6,129.4l-0.5,2.4h2.4l-0.5-2.4l-0.7-3.3h-0.1L309.6,129.4z"/>
		<path class="st0" d="M328.2,124.8v13.5h-3.4v-13.5h-3.6v-3.2h10.6v3.2H328.2z"/>
		<path class="st0" d="M348.7,121.6V133c0,0.8-0.1,1.6-0.4,2.2c-0.3,0.7-0.6,1.2-1.1,1.7c-0.5,0.5-1,0.8-1.7,1.1
			c-0.6,0.2-1.4,0.4-2.1,0.4c-1,0-1.8-0.2-2.5-0.5c-0.7-0.3-1.2-0.7-1.7-1.2c-0.4-0.5-0.7-1.1-0.9-1.8c-0.2-0.7-0.3-1.4-0.3-2.2
			v-11.2h3.4v11.2c0,0.6,0.1,1.2,0.4,1.6c0.3,0.4,0.8,0.6,1.5,0.6c0.5,0,0.9-0.2,1.3-0.5s0.5-0.8,0.5-1.4v-11.6H348.7z"/>
		<path class="st0" d="M363.4,138.3l-2.2-6.6h-1.5v6.6h-3.5v-16.7h5.5c0.7,0,1.4,0.1,2,0.3c0.6,0.2,1.2,0.5,1.7,0.9
			c0.5,0.4,0.8,0.9,1.1,1.5c0.3,0.6,0.4,1.4,0.4,2.2c0,1.1-0.2,2-0.6,2.8c-0.4,0.8-1,1.4-1.8,1.8l2.7,7.2H363.4z M363.6,126.6
			c0-0.6-0.2-1.1-0.5-1.4s-0.8-0.4-1.4-0.4h-2v3.8h1.9c0.6,0,1-0.1,1.4-0.4C363.4,127.8,363.6,127.3,363.6,126.6z"/>
		<path class="st0" d="M381.3,134.9h-3.9c-0.1,0.6-0.3,1.1-0.4,1.7c-0.2,0.6-0.3,1.1-0.5,1.7h-3.7l4.8-16.7h3.4l4.8,16.7h-3.7
			L381.3,134.9z M378.6,129.4l-0.5,2.4h2.4l-0.5-2.4l-0.7-3.3h-0.1L378.6,129.4z"/>
		<path class="st0" d="M392.2,138.3v-16.7h3.5V135h6.2v3.3H392.2z"/>
		<path class="st0" d="M408.4,138.3v-3.8h3.6v3.8H408.4z"/>
	</g>
</g>
</svg>
